# xmcd
#
# Track frame offsets: 
#        150
#        19065
#        36033
#        51121
#        65811
#        81644
#        97949
#        119128
#        138661
#        152517
#        176144
#        198321
#        221950
#
# Disc length: 3160 seconds
#
# Revision: 1
# Processed by: cddbd v1.5.2PL0 Copyright (c) Steve Scherf et al.
# Submitted via: ExactAudioCopy v0.99pb5
#
DISCID=c50c560d
DTITLE=Harlem - Niebo Nade Mna
DYEAR=2007
DGENRE=Blues
TTITLE0=Niebo Nade Mna
TTITLE1=Przywitaj Ze Mna Nowy Dzien (feat. Jerzy Styczynski)
TTITLE2=You're In Love Again (feat. Dean Bowman)
TTITLE3=Swiat W Oblokach (feat. Maciek Balcar)
TTITLE4=Dzis Ostatni Powiem Raz
TTITLE5=Wez Co Chcesz (Co Swiat Daje Tobie)
TTITLE6=Live You More
TTITLE7=Prawda Na Pol (feat. Piotr Cugowski)
TTITLE8=Lalu
TTITLE9=Fiduaje
TTITLE10=Kropla
TTITLE11=Potop (feat. Jerzy Styczynski)
TTITLE12=Serce Jak Kamien (feat. Piotr Cugowski)
EXTD=
EXTT0=
EXTT1=
EXTT2=
EXTT3=
EXTT4=
EXTT5=
EXTT6=
EXTT7=
EXTT8=
EXTT9=
EXTT10=
EXTT11=
EXTT12=
PLAYORDER=
